<svg data-v-423bf9ae="" xmlns="http://www.w3.org/2000/svg" viewBox="0 0 764 90" class="iconLeft"><!----><defs data-v-423bf9ae=""><linearGradient data-v-423bf9ae="" gradientTransform="rotate(25)" id="fe5bb7bc-a026-45a5-bbbb-3fb571abd095" x1="0%" y1="0%" x2="100%" y2="0%"><stop data-v-423bf9ae="" offset="0%" style="stop-color: rgb(0, 125, 232); stop-opacity: 1;"></stop><stop data-v-423bf9ae="" offset="100%" style="stop-color: rgb(161, 195, 219); stop-opacity: 1;"></stop></linearGradient></defs><!----><g data-v-423bf9ae="" id="0dea13b9-0394-4e84-b169-582e94230052" fill="#ffffff" transform="matrix(4.754358204761736,0,0,4.754358204761736,126.57364874658833,-4.255152112944053)"><path d="M4.98 4.19L4.98 4.19Q5.84 4.19 6.49 4.54L6.49 4.54L6.49 4.54Q7.14 4.90 7.50 5.54L7.50 5.54L7.50 5.54Q7.85 6.19 7.85 7.03L7.85 7.03L7.85 7.03Q7.85 7.87 7.49 8.50L7.49 8.50L7.49 8.50Q7.13 9.13 6.46 9.48L6.46 9.48L6.46 9.48Q5.80 9.83 4.93 9.83L4.93 9.83L2.48 9.83L2.48 9.83Q2.41 9.83 2.41 9.90L2.41 9.90L2.41 13.79L2.41 13.79Q2.41 13.89 2.35 13.94L2.35 13.94L2.35 13.94Q2.30 14 2.20 14L2.20 14L1.27 14L1.27 14Q1.18 14 1.12 13.94L1.12 13.94L1.12 13.94Q1.06 13.89 1.06 13.79L1.06 13.79L1.06 4.40L1.06 4.40Q1.06 4.30 1.12 4.24L1.12 4.24L1.12 4.24Q1.18 4.19 1.27 4.19L1.27 4.19L4.98 4.19ZM4.80 8.74L4.80 8.74Q5.57 8.74 6.04 8.27L6.04 8.27L6.04 8.27Q6.51 7.81 6.51 7.06L6.51 7.06L6.51 7.06Q6.51 6.29 6.04 5.82L6.04 5.82L6.04 5.82Q5.57 5.35 4.80 5.35L4.80 5.35L2.48 5.35L2.48 5.35Q2.41 5.35 2.41 5.42L2.41 5.42L2.41 8.67L2.41 8.67Q2.41 8.74 2.48 8.74L2.48 8.74L4.80 8.74ZM14.90 4.41L14.90 4.41Q14.90 4.31 14.95 4.26L14.95 4.26L14.95 4.26Q15.01 4.20 15.11 4.20L15.11 4.20L16.03 4.20L16.03 4.20Q16.13 4.20 16.18 4.26L16.18 4.26L16.18 4.26Q16.24 4.31 16.24 4.41L16.24 4.41L16.24 13.79L16.24 13.79Q16.24 13.89 16.18 13.94L16.18 13.94L16.18 13.94Q16.13 14 16.03 14L16.03 14L15.11 14L15.11 14Q15.01 14 14.95 13.94L14.95 13.94L14.95 13.94Q14.90 13.89 14.90 13.79L14.90 13.79L14.90 9.72L14.90 9.72Q14.90 9.65 14.83 9.65L14.83 9.65L10.86 9.65L10.86 9.65Q10.79 9.65 10.79 9.72L10.79 9.72L10.79 13.79L10.79 13.79Q10.79 13.89 10.74 13.94L10.74 13.94L10.74 13.94Q10.68 14 10.58 14L10.58 14L9.66 14L9.66 14Q9.56 14 9.51 13.94L9.51 13.94L9.51 13.94Q9.45 13.89 9.45 13.79L9.45 13.79L9.45 4.41L9.45 4.41Q9.45 4.31 9.51 4.26L9.51 4.26L9.51 4.26Q9.56 4.20 9.66 4.20L9.66 4.20L10.58 4.20L10.58 4.20Q10.68 4.20 10.74 4.26L10.74 4.26L10.74 4.26Q10.79 4.31 10.79 4.41L10.79 4.41L10.79 8.41L10.79 8.41Q10.79 8.48 10.86 8.48L10.86 8.48L14.83 8.48L14.83 8.48Q14.90 8.48 14.90 8.41L14.90 8.41L14.90 4.41ZM25.12 4.19L25.12 4.19Q25.97 4.19 26.62 4.54L26.62 4.54L26.62 4.54Q27.27 4.90 27.63 5.54L27.63 5.54L27.63 5.54Q27.99 6.19 27.99 7.03L27.99 7.03L27.99 7.03Q27.99 7.87 27.62 8.50L27.62 8.50L27.62 8.50Q27.26 9.13 26.59 9.48L26.59 9.48L26.59 9.48Q25.93 9.83 25.06 9.83L25.06 9.83L22.61 9.83L22.61 9.83Q22.54 9.83 22.54 9.90L22.54 9.90L22.54 13.79L22.54 13.79Q22.54 13.89 22.48 13.94L22.48 13.94L22.48 13.94Q22.43 14 22.33 14L22.33 14L21.41 14L21.41 14Q21.31 14 21.25 13.94L21.25 13.94L21.25 13.94Q21.20 13.89 21.20 13.79L21.20 13.79L21.20 4.40L21.20 4.40Q21.20 4.30 21.25 4.24L21.25 4.24L21.25 4.24Q21.31 4.19 21.41 4.19L21.41 4.19L25.12 4.19ZM24.93 8.74L24.93 8.74Q25.70 8.74 26.17 8.27L26.17 8.27L26.17 8.27Q26.64 7.81 26.64 7.06L26.64 7.06L26.64 7.06Q26.64 6.29 26.17 5.82L26.17 5.82L26.17 5.82Q25.70 5.35 24.93 5.35L24.93 5.35L22.61 5.35L22.61 5.35Q22.54 5.35 22.54 5.42L22.54 5.42L22.54 8.67L22.54 8.67Q22.54 8.74 22.61 8.74L22.61 8.74L24.93 8.74ZM32.34 14.11L32.34 14.11Q31.29 14.11 30.53 13.59L30.53 13.59L30.53 13.59Q29.76 13.06 29.46 12.12L29.46 12.12L29.46 12.12Q29.20 11.37 29.20 10.42L29.20 10.42L29.20 10.42Q29.20 9.42 29.44 8.74L29.44 8.74L29.44 8.74Q29.75 7.81 30.52 7.29L30.52 7.29L30.52 7.29Q31.29 6.76 32.35 6.76L32.35 6.76L32.35 6.76Q33.36 6.76 34.11 7.29L34.11 7.29L34.11 7.29Q34.86 7.81 35.18 8.72L35.18 8.72L35.18 8.72Q35.43 9.44 35.43 10.40L35.43 10.40L35.43 10.40Q35.43 11.38 35.18 12.12L35.18 12.12L35.18 12.12Q34.87 13.06 34.12 13.59L34.12 13.59L34.12 13.59Q33.36 14.11 32.34 14.11L32.34 14.11ZM32.34 12.95L32.34 12.95Q32.90 12.95 33.32 12.63L33.32 12.63L33.32 12.63Q33.74 12.32 33.92 11.75L33.92 11.75L33.92 11.75Q34.08 11.21 34.08 10.43L34.08 10.43L34.08 10.43Q34.08 9.65 33.94 9.13L33.94 9.13L33.94 9.13Q33.75 8.55 33.33 8.24L33.33 8.24L33.33 8.24Q32.91 7.92 32.31 7.92L32.31 7.92L32.31 7.92Q31.74 7.92 31.32 8.24L31.32 8.24L31.32 8.24Q30.90 8.55 30.72 9.13L30.72 9.13L30.72 9.13Q30.56 9.62 30.56 10.43L30.56 10.43L30.56 10.43Q30.56 11.24 30.72 11.75L30.72 11.75L30.72 11.75Q30.88 12.32 31.31 12.63L31.31 12.63L31.31 12.63Q31.74 12.95 32.34 12.95L32.34 12.95ZM40.11 14.11L40.11 14.11Q39.06 14.11 38.30 13.59L38.30 13.59L38.30 13.59Q37.53 13.06 37.23 12.12L37.23 12.12L37.23 12.12Q36.97 11.37 36.97 10.42L36.97 10.42L36.97 10.42Q36.97 9.42 37.21 8.74L37.21 8.74L37.21 8.74Q37.52 7.81 38.29 7.29L38.29 7.29L38.29 7.29Q39.06 6.76 40.12 6.76L40.12 6.76L40.12 6.76Q41.13 6.76 41.88 7.29L41.88 7.29L41.88 7.29Q42.63 7.81 42.95 8.72L42.95 8.72L42.95 8.72Q43.20 9.44 43.20 10.40L43.20 10.40L43.20 10.40Q43.20 11.38 42.95 12.12L42.95 12.12L42.95 12.12Q42.64 13.06 41.89 13.59L41.89 13.59L41.89 13.59Q41.13 14.11 40.11 14.11L40.11 14.11ZM40.11 12.95L40.11 12.95Q40.67 12.95 41.09 12.63L41.09 12.63L41.09 12.63Q41.51 12.32 41.69 11.75L41.69 11.75L41.69 11.75Q41.85 11.21 41.85 10.43L41.85 10.43L41.85 10.43Q41.85 9.65 41.71 9.13L41.71 9.13L41.71 9.13Q41.52 8.55 41.10 8.24L41.10 8.24L41.10 8.24Q40.68 7.92 40.08 7.92L40.08 7.92L40.08 7.92Q39.51 7.92 39.09 8.24L39.09 8.24L39.09 8.24Q38.67 8.55 38.49 9.13L38.49 9.13L38.49 9.13Q38.33 9.62 38.33 10.43L38.33 10.43L38.33 10.43Q38.33 11.24 38.49 11.75L38.49 11.75L38.49 11.75Q38.65 12.32 39.08 12.63L39.08 12.63L39.08 12.63Q39.51 12.95 40.11 12.95L40.11 12.95ZM45.18 14L45.18 14Q45.08 14 45.02 13.94L45.02 13.94L45.02 13.94Q44.97 13.89 44.97 13.79L44.97 13.79L44.97 4.41L44.97 4.41Q44.97 4.31 45.02 4.26L45.02 4.26L45.02 4.26Q45.08 4.20 45.18 4.20L45.18 4.20L46.10 4.20L46.10 4.20Q46.20 4.20 46.26 4.26L46.26 4.26L46.26 4.26Q46.31 4.31 46.31 4.41L46.31 4.41L46.31 13.79L46.31 13.79Q46.31 13.89 46.26 13.94L46.26 13.94L46.26 13.94Q46.20 14 46.10 14L46.10 14L45.18 14ZM58.67 13.75L58.67 13.75Q58.74 13.85 58.74 13.89L58.74 13.89L58.74 13.89Q58.74 14 58.56 14L58.56 14L57.53 14L57.53 14Q57.37 14 57.27 13.89L57.27 13.89L56.59 13.12L56.59 13.12Q56.55 13.06 56.49 13.10L56.49 13.10L56.49 13.10Q55.82 13.62 55.13 13.87L55.13 13.87L55.13 13.87Q54.45 14.11 53.66 14.11L53.66 14.11L53.66 14.11Q52.40 14.11 51.60 13.52L51.60 13.52L51.60 13.52Q50.81 12.92 50.81 11.77L50.81 11.77L50.81 11.77Q50.81 10.81 51.34 10.14L51.34 10.14L51.34 10.14Q51.87 9.46 52.81 8.88L52.81 8.88L52.81 8.88Q52.86 8.82 52.81 8.78L52.81 8.78L52.81 8.78Q52.04 7.84 51.79 7.37L51.79 7.37L51.79 7.37Q51.53 6.90 51.53 6.43L51.53 6.43L51.53 6.43Q51.53 5.38 52.23 4.73L52.23 4.73L52.23 4.73Q52.92 4.09 54.07 4.09L54.07 4.09L54.07 4.09Q55.22 4.09 55.96 4.72L55.96 4.72L55.96 4.72Q56.70 5.35 56.70 6.37L56.70 6.37L56.70 6.37Q56.70 7.24 56.19 7.84L56.19 7.84L56.19 7.84Q55.68 8.44 54.74 9.03L54.74 9.03L54.74 9.03Q54.68 9.07 54.73 9.13L54.73 9.13L56.52 11.20L56.57 11.27L56.57 11.27Q56.62 11.31 56.67 11.27L56.67 11.27L56.67 11.27Q56.99 10.88 57.53 10.15L57.53 10.15L57.53 10.15Q57.60 10.04 57.69 10.04L57.69 10.04L57.69 10.04Q57.75 10.04 57.82 10.08L57.82 10.08L58.49 10.46L58.49 10.46Q58.59 10.51 58.59 10.63L58.59 10.63L58.59 10.63Q58.59 10.68 58.55 10.75L58.55 10.75L58.55 10.75Q57.93 11.65 57.44 12.21L57.44 12.21L57.43 12.24L57.43 12.24Q57.43 12.29 57.48 12.35L57.48 12.35L58.67 13.75ZM54.10 5.32L54.10 5.32Q53.55 5.32 53.21 5.62L53.21 5.62L53.21 5.62Q52.88 5.92 52.88 6.43L52.88 6.43L52.88 6.43Q52.88 6.71 53.07 7.04L53.07 7.04L53.07 7.04Q53.26 7.36 53.87 8.12L53.87 8.12L53.87 8.12Q53.91 8.18 53.97 8.13L53.97 8.13L53.97 8.13Q54.66 7.67 55.01 7.28L55.01 7.28L55.01 7.28Q55.36 6.89 55.36 6.40L55.36 6.40L55.36 6.40Q55.36 5.91 55.01 5.61L55.01 5.61L55.01 5.61Q54.66 5.32 54.10 5.32L54.10 5.32ZM53.68 12.96L53.68 12.96Q54.68 12.96 55.69 12.19L55.69 12.19L55.69 12.19Q55.75 12.15 55.69 12.10L55.69 12.10L55.30 11.63L55.30 11.63Q54.96 11.23 54.73 10.98L54.73 10.98L54.73 10.98Q54.22 10.43 53.96 10.11L53.96 10.11L53.68 9.79L53.68 9.79Q53.63 9.73 53.58 9.77L53.58 9.77L53.58 9.77Q52.88 10.26 52.51 10.70L52.51 10.70L52.51 10.70Q52.15 11.14 52.15 11.72L52.15 11.72L52.15 11.72Q52.15 12.29 52.56 12.63L52.56 12.63L52.56 12.63Q52.98 12.96 53.68 12.96L53.68 12.96ZM66.56 14.11L66.56 14.11Q65.51 14.11 64.72 13.78L64.72 13.78L64.72 13.78Q63.94 13.44 63.51 12.82L63.51 12.82L63.51 12.82Q63.08 12.21 63.08 11.38L63.08 11.38L63.08 11.05L63.08 11.05Q63.08 10.95 63.14 10.89L63.14 10.89L63.14 10.89Q63.20 10.84 63.29 10.84L63.29 10.84L64.19 10.84L64.19 10.84Q64.29 10.84 64.34 10.89L64.34 10.89L64.34 10.89Q64.40 10.95 64.40 11.05L64.40 11.05L64.40 11.31L64.40 11.31Q64.40 12.03 65.02 12.49L65.02 12.49L65.02 12.49Q65.63 12.95 66.65 12.95L66.65 12.95L66.65 12.95Q67.62 12.95 68.11 12.54L68.11 12.54L68.11 12.54Q68.60 12.14 68.60 11.48L68.60 11.48L68.60 11.48Q68.60 11.05 68.35 10.74L68.35 10.74L68.35 10.74Q68.10 10.43 67.61 10.17L67.61 10.17L67.61 10.17Q67.13 9.91 66.21 9.55L66.21 9.55L66.21 9.55Q65.18 9.16 64.59 8.83L64.59 8.83L64.59 8.83Q63.99 8.51 63.60 7.99L63.60 7.99L63.60 7.99Q63.21 7.46 63.21 6.66L63.21 6.66L63.21 6.66Q63.21 5.46 64.07 4.77L64.07 4.77L64.07 4.77Q64.93 4.09 66.40 4.09L66.40 4.09L66.40 4.09Q67.44 4.09 68.22 4.44L68.22 4.44L68.22 4.44Q69.01 4.79 69.43 5.42L69.43 5.42L69.43 5.42Q69.86 6.05 69.86 6.87L69.86 6.87L69.86 7.08L69.86 7.08Q69.86 7.18 69.80 7.24L69.80 7.24L69.80 7.24Q69.75 7.29 69.65 7.29L69.65 7.29L68.74 7.29L68.74 7.29Q68.64 7.29 68.59 7.25L68.59 7.25L68.59 7.25Q68.53 7.20 68.53 7.11L68.53 7.11L68.53 6.94L68.53 6.94Q68.53 6.22 67.95 5.73L67.95 5.73L67.95 5.73Q67.37 5.25 66.35 5.25L66.35 5.25L66.35 5.25Q65.48 5.25 65.00 5.61L65.00 5.61L65.00 5.61Q64.53 5.96 64.53 6.64L64.53 6.64L64.53 6.64Q64.53 7.10 64.76 7.39L64.76 7.39L64.76 7.39Q65.00 7.69 65.47 7.92L65.47 7.92L65.47 7.92Q65.94 8.15 66.91 8.51L66.91 8.51L66.91 8.51Q67.90 8.90 68.52 9.23L68.52 9.23L68.52 9.23Q69.13 9.56 69.54 10.10L69.54 10.10L69.54 10.10Q69.94 10.64 69.94 11.44L69.94 11.44L69.94 11.44Q69.94 12.24 69.54 12.84L69.54 12.84L69.54 12.84Q69.13 13.44 68.36 13.78L68.36 13.78L68.36 13.78Q67.59 14.11 66.56 14.11L66.56 14.11ZM77.38 8.67L77.38 8.67Q77.63 9.37 77.63 10.46L77.63 10.46L77.63 10.46Q77.63 11.48 77.42 12.15L77.42 12.15L77.42 12.15Q77.13 13.08 76.45 13.59L76.45 13.59L76.45 13.59Q75.77 14.11 74.73 14.11L74.73 14.11L74.73 14.11Q74.24 14.11 73.83 13.93L73.83 13.93L73.83 13.93Q73.42 13.75 73.11 13.40L73.11 13.40L73.11 13.40Q73.08 13.37 73.05 13.38L73.05 13.38L73.05 13.38Q73.02 13.38 73.02 13.43L73.02 13.43L73.02 16.46L73.02 16.46Q73.02 16.56 72.97 16.62L72.97 16.62L72.97 16.62Q72.91 16.67 72.81 16.67L72.81 16.67L71.89 16.67L71.89 16.67Q71.79 16.67 71.74 16.62L71.74 16.62L71.74 16.62Q71.68 16.56 71.68 16.46L71.68 16.46L71.68 7.08L71.68 7.08Q71.68 6.99 71.74 6.93L71.74 6.93L71.74 6.93Q71.79 6.87 71.89 6.87L71.89 6.87L72.81 6.87L72.81 6.87Q72.91 6.87 72.97 6.93L72.97 6.93L72.97 6.93Q73.02 6.99 73.02 7.08L73.02 7.08L73.02 7.45L73.02 7.45Q73.02 7.49 73.05 7.50L73.05 7.50L73.05 7.50Q73.08 7.52 73.11 7.49L73.11 7.49L73.11 7.49Q73.42 7.14 73.83 6.95L73.83 6.95L73.83 6.95Q74.24 6.76 74.73 6.76L74.73 6.76L74.73 6.76Q75.74 6.76 76.41 7.26L76.41 7.26L76.41 7.26Q77.07 7.76 77.38 8.67L77.38 8.67ZM75.84 12.28L75.84 12.28Q76.29 11.58 76.29 10.43L76.29 10.43L76.29 10.43Q76.29 9.35 75.94 8.69L75.94 8.69L75.94 8.69Q75.53 7.92 74.59 7.92L74.59 7.92L74.59 7.92Q73.79 7.92 73.37 8.68L73.37 8.68L73.37 8.68Q73.04 9.28 73.04 10.44L73.04 10.44L73.04 10.44Q73.04 11.59 73.40 12.24L73.40 12.24L73.40 12.24Q73.81 12.95 74.59 12.95L74.59 12.95L74.59 12.95Q75.40 12.95 75.84 12.28L75.84 12.28ZM81.94 6.76L81.94 6.76Q82.80 6.76 83.43 7.06L83.43 7.06L83.43 7.06Q84.07 7.36 84.41 7.90L84.41 7.90L84.41 7.90Q84.76 8.44 84.76 9.13L84.76 9.13L84.76 13.79L84.76 13.79Q84.76 13.89 84.70 13.94L84.70 13.94L84.70 13.94Q84.64 14 84.55 14L84.55 14L83.62 14L83.62 14Q83.52 14 83.47 13.94L83.47 13.94L83.47 13.94Q83.41 13.89 83.41 13.79L83.41 13.79L83.41 13.40L83.41 13.40Q83.41 13.36 83.38 13.34L83.38 13.34L83.38 13.34Q83.36 13.33 83.33 13.36L83.33 13.36L83.33 13.36Q82.94 13.72 82.40 13.92L82.40 13.92L82.40 13.92Q81.86 14.11 81.23 14.11L81.23 14.11L81.23 14.11Q80.21 14.11 79.55 13.59L79.55 13.59L79.55 13.59Q78.89 13.06 78.89 12.00L78.89 12.00L78.89 12.00Q78.89 10.91 79.65 10.28L79.65 10.28L79.65 10.28Q80.42 9.66 81.79 9.66L81.79 9.66L83.34 9.66L83.34 9.66Q83.41 9.66 83.41 9.59L83.41 9.59L83.41 9.23L83.41 9.23Q83.41 8.61 83.05 8.27L83.05 8.27L83.05 8.27Q82.70 7.92 81.97 7.92L81.97 7.92L81.97 7.92Q81.40 7.92 81.04 8.13L81.04 8.13L81.04 8.13Q80.68 8.34 80.57 8.72L80.57 8.72L80.57 8.72Q80.51 8.90 80.33 8.89L80.33 8.89L79.32 8.76L79.32 8.76Q79.23 8.75 79.17 8.70L79.17 8.70L79.17 8.70Q79.11 8.65 79.13 8.58L79.13 8.58L79.13 8.58Q79.25 7.78 80.03 7.27L80.03 7.27L80.03 7.27Q80.81 6.76 81.94 6.76L81.94 6.76ZM81.56 12.98L81.56 12.98Q82.31 12.98 82.86 12.59L82.86 12.59L82.86 12.59Q83.41 12.19 83.41 11.59L83.41 11.59L83.41 10.78L83.41 10.78Q83.41 10.71 83.34 10.71L83.34 10.71L82.04 10.71L82.04 10.71Q81.21 10.71 80.72 11.03L80.72 11.03L80.72 11.03Q80.23 11.35 80.23 11.93L80.23 11.93L80.23 11.93Q80.23 12.45 80.60 12.71L80.60 12.71L80.60 12.71Q80.98 12.98 81.56 12.98L81.56 12.98ZM92.55 14.11L92.55 14.11Q91.50 14.11 90.72 13.78L90.72 13.78L90.72 13.78Q89.94 13.44 89.51 12.82L89.51 12.82L89.51 12.82Q89.08 12.21 89.08 11.38L89.08 11.38L89.08 11.05L89.08 11.05Q89.08 10.95 89.14 10.89L89.14 10.89L89.14 10.89Q89.19 10.84 89.29 10.84L89.29 10.84L90.19 10.84L90.19 10.84Q90.29 10.84 90.34 10.89L90.34 10.89L90.34 10.89Q90.40 10.95 90.40 11.05L90.40 11.05L90.40 11.31L90.40 11.31Q90.40 12.03 91.01 12.49L91.01 12.49L91.01 12.49Q91.63 12.95 92.65 12.95L92.65 12.95L92.65 12.95Q93.62 12.95 94.11 12.54L94.11 12.54L94.11 12.54Q94.60 12.14 94.60 11.48L94.60 11.48L94.60 11.48Q94.60 11.05 94.35 10.74L94.35 10.74L94.35 10.74Q94.09 10.43 93.61 10.17L93.61 10.17L93.61 10.17Q93.13 9.91 92.20 9.55L92.20 9.55L92.20 9.55Q91.18 9.16 90.59 8.83L90.59 8.83L90.59 8.83Q89.99 8.51 89.60 7.99L89.60 7.99L89.60 7.99Q89.21 7.46 89.21 6.66L89.21 6.66L89.21 6.66Q89.21 5.46 90.07 4.77L90.07 4.77L90.07 4.77Q90.93 4.09 92.40 4.09L92.40 4.09L92.40 4.09Q93.44 4.09 94.22 4.44L94.22 4.44L94.22 4.44Q95.00 4.79 95.43 5.42L95.43 5.42L95.43 5.42Q95.86 6.05 95.86 6.87L95.86 6.87L95.86 7.08L95.86 7.08Q95.86 7.18 95.80 7.24L95.80 7.24L95.80 7.24Q95.75 7.29 95.65 7.29L95.65 7.29L94.74 7.29L94.74 7.29Q94.64 7.29 94.58 7.25L94.58 7.25L94.58 7.25Q94.53 7.20 94.53 7.11L94.53 7.11L94.53 6.94L94.53 6.94Q94.53 6.22 93.95 5.73L93.95 5.73L93.95 5.73Q93.37 5.25 92.34 5.25L92.34 5.25L92.34 5.25Q91.48 5.25 91.00 5.61L91.00 5.61L91.00 5.61Q90.52 5.96 90.52 6.64L90.52 6.64L90.52 6.64Q90.52 7.10 90.76 7.39L90.76 7.39L90.76 7.39Q91.00 7.69 91.47 7.92L91.47 7.92L91.47 7.92Q91.94 8.15 92.90 8.51L92.90 8.51L92.90 8.51Q93.90 8.90 94.51 9.23L94.51 9.23L94.51 9.23Q95.13 9.56 95.54 10.10L95.54 10.10L95.54 10.10Q95.94 10.64 95.94 11.44L95.94 11.44L95.94 11.44Q95.94 12.24 95.54 12.84L95.54 12.84L95.54 12.84Q95.13 13.44 94.36 13.78L94.36 13.78L94.36 13.78Q93.59 14.11 92.55 14.11L92.55 14.11ZM100.59 12.96L100.59 12.96Q101.72 12.95 102.21 12.08L102.21 12.08L102.21 12.08Q102.28 11.96 102.37 11.96L102.37 11.96L102.37 11.96Q102.44 11.96 102.49 12.00L102.49 12.00L103.07 12.35L103.07 12.35Q103.18 12.42 103.18 12.53L103.18 12.53L103.15 12.64L103.15 12.64Q102.77 13.33 102.08 13.72L102.08 13.72L102.08 13.72Q101.39 14.11 100.46 14.11L100.46 14.11L100.46 14.11Q99.47 14.11 98.78 13.67L98.78 13.67L98.78 13.67Q98.10 13.23 97.75 12.40L97.75 12.40L97.75 12.40Q97.40 11.55 97.40 10.40L97.40 10.40L97.40 10.40Q97.40 9.38 97.55 8.85L97.55 8.85L97.55 8.85Q97.80 7.88 98.56 7.32L98.56 7.32L98.56 7.32Q99.32 6.76 100.39 6.76L100.39 6.76L100.39 6.76Q101.72 6.76 102.42 7.46L102.42 7.46L102.42 7.46Q103.12 8.15 103.33 9.46L103.33 9.46L103.33 9.46Q103.40 9.98 103.43 10.72L103.43 10.72L103.43 10.72Q103.43 10.93 103.22 10.93L103.22 10.93L98.80 10.93L98.80 10.93Q98.73 10.93 98.73 11.00L98.73 11.00L98.73 11.00Q98.76 11.54 98.83 11.76L98.83 11.76L98.83 11.76Q98.98 12.32 99.44 12.64L99.44 12.64L99.44 12.64Q99.90 12.96 100.59 12.96L100.59 12.96ZM100.39 7.92L100.39 7.92Q99.78 7.92 99.39 8.22L99.39 8.22L99.39 8.22Q99.01 8.51 98.87 9.03L98.87 9.03L98.87 9.03Q98.77 9.34 98.74 9.81L98.74 9.81L98.74 9.81Q98.74 9.88 98.81 9.88L98.81 9.88L101.99 9.88L101.99 9.88Q102.06 9.88 102.06 9.81L102.06 9.81L102.06 9.81Q102.03 9.35 101.98 9.13L101.98 9.13L101.98 9.13Q101.84 8.58 101.42 8.25L101.42 8.25L101.42 8.25Q101.01 7.92 100.39 7.92L100.39 7.92ZM108.25 6.80L108.25 6.80Q108.67 6.80 109.00 6.96L109.00 6.96L109.00 6.96Q109.16 7.04 109.12 7.22L109.12 7.22L108.92 8.13L108.92 8.13Q108.91 8.27 108.78 8.27L108.78 8.27L108.78 8.27Q108.71 8.27 108.67 8.26L108.67 8.26L108.67 8.26Q108.46 8.19 108.19 8.19L108.19 8.19L108.19 8.19Q108.05 8.19 107.98 8.20L107.98 8.20L107.98 8.20Q107.32 8.23 106.90 8.66L106.90 8.66L106.90 8.66Q106.47 9.09 106.47 9.77L106.47 9.77L106.47 13.79L106.47 13.79Q106.47 13.89 106.41 13.94L106.41 13.94L106.41 13.94Q106.36 14 106.26 14L106.26 14L105.34 14L105.34 14Q105.24 14 105.18 13.94L105.18 13.94L105.18 13.94Q105.13 13.89 105.13 13.79L105.13 13.79L105.13 7.08L105.13 7.08Q105.13 6.99 105.18 6.93L105.18 6.93L105.18 6.93Q105.24 6.87 105.34 6.87L105.34 6.87L106.26 6.87L106.26 6.87Q106.36 6.87 106.41 6.93L106.41 6.93L106.41 6.93Q106.47 6.99 106.47 7.08L106.47 7.08L106.47 7.73L106.47 7.73Q106.47 7.78 106.49 7.79L106.49 7.79L106.49 7.79Q106.51 7.80 106.54 7.76L106.54 7.76L106.54 7.76Q107.17 6.80 108.25 6.80L108.25 6.80ZM112.25 14L112.25 14Q112.07 14 112.01 13.83L112.01 13.83L109.77 7.11L109.77 7.11Q109.76 7.08 109.76 7.03L109.76 7.03L109.76 7.03Q109.76 6.87 109.94 6.87L109.94 6.87L110.98 6.87L110.98 6.87Q111.06 6.87 111.13 6.92L111.13 6.92L111.13 6.92Q111.20 6.97 111.22 7.06L111.22 7.06L112.74 12.07L112.74 12.07Q112.76 12.12 112.78 12.12L112.78 12.12L112.78 12.12Q112.81 12.11 112.83 12.05L112.83 12.05L114.34 7.06L114.34 7.06Q114.35 6.97 114.42 6.92L114.42 6.92L114.42 6.92Q114.49 6.87 114.58 6.87L114.58 6.87L115.61 6.89L115.61 6.89Q115.72 6.89 115.77 6.95L115.77 6.95L115.77 6.95Q115.81 7.01 115.78 7.13L115.78 7.13L113.55 13.83L113.55 13.83Q113.50 14 113.32 14L113.32 14L112.25 14ZM117.98 5.81L117.98 5.81Q117.57 5.81 117.31 5.56L117.31 5.56L117.31 5.56Q117.05 5.32 117.05 4.93L117.05 4.93L117.05 4.93Q117.05 4.54 117.31 4.29L117.31 4.29L117.31 4.29Q117.57 4.05 117.98 4.05L117.98 4.05L117.98 4.05Q118.38 4.05 118.64 4.29L118.64 4.29L118.64 4.29Q118.89 4.54 118.89 4.93L118.89 4.93L118.89 4.93Q118.89 5.32 118.64 5.56L118.64 5.56L118.64 5.56Q118.38 5.81 117.98 5.81L117.98 5.81ZM117.52 14L117.52 14Q117.42 14 117.36 13.94L117.36 13.94L117.36 13.94Q117.31 13.89 117.31 13.79L117.31 13.79L117.31 7.08L117.31 7.08Q117.31 6.99 117.36 6.93L117.36 6.93L117.36 6.93Q117.42 6.87 117.52 6.87L117.52 6.87L118.44 6.87L118.44 6.87Q118.54 6.87 118.59 6.93L118.59 6.93L118.59 6.93Q118.65 6.99 118.65 7.08L118.65 7.08L118.65 13.79L118.65 13.79Q118.65 13.89 118.59 13.94L118.59 13.94L118.59 13.94Q118.54 14 118.44 14L118.44 14L117.52 14ZM123.56 14.11L123.56 14.11Q122.50 14.11 121.74 13.57L121.74 13.57L121.74 13.57Q120.99 13.03 120.71 12.11L120.71 12.11L120.71 12.11Q120.50 11.47 120.50 10.42L120.50 10.42L120.50 10.42Q120.50 9.45 120.71 8.72L120.71 8.72L120.71 8.72Q120.99 7.83 121.75 7.29L121.75 7.29L121.75 7.29Q122.51 6.76 123.56 6.76L123.56 6.76L123.56 6.76Q124.61 6.76 125.40 7.29L125.40 7.29L125.40 7.29Q126.18 7.83 126.42 8.64L126.42 8.64L126.42 8.64Q126.49 8.82 126.52 9.03L126.52 9.03L126.52 9.06L126.52 9.06Q126.52 9.23 126.34 9.25L126.34 9.25L125.43 9.38L125.38 9.38L125.38 9.38Q125.23 9.38 125.19 9.23L125.19 9.23L125.15 9.04L125.15 9.04Q125.03 8.57 124.60 8.25L124.60 8.25L124.60 8.25Q124.17 7.92 123.55 7.92L123.55 7.92L123.55 7.92Q122.95 7.92 122.53 8.25L122.53 8.25L122.53 8.25Q122.11 8.57 121.98 9.10L121.98 9.10L121.98 9.10Q121.86 9.60 121.86 10.43L121.86 10.43L121.86 10.43Q121.86 11.24 121.98 11.75L121.98 11.75L121.98 11.75Q122.12 12.31 122.53 12.63L122.53 12.63L122.53 12.63Q122.95 12.95 123.55 12.95L123.55 12.95L123.55 12.95Q124.15 12.95 124.59 12.63L124.59 12.63L124.59 12.63Q125.02 12.32 125.15 11.83L125.15 11.83L125.16 11.77L125.16 11.76L125.16 11.76Q125.17 11.69 125.24 11.63L125.24 11.63L125.24 11.63Q125.31 11.56 125.40 11.58L125.40 11.58L126.31 11.73L126.31 11.73Q126.50 11.77 126.49 11.96L126.49 11.96L126.49 11.96Q126.48 12.01 126.42 12.22L126.42 12.22L126.42 12.22Q126.18 13.08 125.40 13.59L125.40 13.59L125.40 13.59Q124.61 14.11 123.56 14.11L123.56 14.11ZM131.07 12.96L131.07 12.96Q132.20 12.95 132.69 12.08L132.69 12.08L132.69 12.08Q132.76 11.96 132.85 11.96L132.85 11.96L132.85 11.96Q132.92 11.96 132.97 12.00L132.97 12.00L133.55 12.35L133.55 12.35Q133.66 12.42 133.66 12.53L133.66 12.53L133.63 12.64L133.63 12.64Q133.25 13.33 132.56 13.72L132.56 13.72L132.56 13.72Q131.87 14.11 130.94 14.11L130.94 14.11L130.94 14.11Q129.95 14.11 129.26 13.67L129.26 13.67L129.26 13.67Q128.58 13.23 128.23 12.40L128.23 12.40L128.23 12.40Q127.88 11.55 127.88 10.40L127.88 10.40L127.88 10.40Q127.88 9.38 128.03 8.85L128.03 8.85L128.03 8.85Q128.28 7.88 129.04 7.32L129.04 7.32L129.04 7.32Q129.79 6.76 130.87 6.76L130.87 6.76L130.87 6.76Q132.20 6.76 132.90 7.46L132.90 7.46L132.90 7.46Q133.60 8.15 133.81 9.46L133.81 9.46L133.81 9.46Q133.88 9.98 133.91 10.72L133.91 10.72L133.91 10.72Q133.91 10.93 133.70 10.93L133.70 10.93L129.28 10.93L129.28 10.93Q129.21 10.93 129.21 11.00L129.21 11.00L129.21 11.00Q129.23 11.54 129.30 11.76L129.30 11.76L129.30 11.76Q129.46 12.32 129.92 12.64L129.92 12.64L129.92 12.64Q130.38 12.96 131.07 12.96L131.07 12.96ZM130.87 7.92L130.87 7.92Q130.26 7.92 129.87 8.22L129.87 8.22L129.87 8.22Q129.49 8.51 129.35 9.03L129.35 9.03L129.35 9.03Q129.25 9.34 129.22 9.81L129.22 9.81L129.22 9.81Q129.22 9.88 129.29 9.88L129.29 9.88L132.47 9.88L132.47 9.88Q132.54 9.88 132.54 9.81L132.54 9.81L132.54 9.81Q132.51 9.35 132.45 9.13L132.45 9.13L132.45 9.13Q132.31 8.58 131.90 8.25L131.90 8.25L131.90 8.25Q131.49 7.92 130.87 7.92L130.87 7.92Z"></path></g><!----><g data-v-423bf9ae="" id="52100298-5075-4ffc-b4ba-051d5cd747fa" transform="matrix(1.3574456940251345,0,0,1.3574456940251345,-10.714098520030888,-27.301900457557224)" stroke="none" fill="#ffffff"><path d="M76.645 33.453c-4.651 0-7.242-1.521-9.134-2.632-1.479-.869-2.373-1.393-4.576-1.393-2.201 0-3.093.524-4.571 1.393-1.891 1.111-4.48 2.633-9.129 2.633-4.65 0-7.24-1.521-9.132-2.633-1.479-.868-2.371-1.393-4.573-1.393-2.201 0-3.093.524-4.57 1.393-1.891 1.111-4.48 2.633-9.13 2.633-4.648 0-7.238-1.522-9.128-2.633-1.477-.868-2.369-1.392-4.568-1.392v-9c4.649 0 7.238 1.522 9.129 2.633 1.477.868 2.369 1.392 4.568 1.392 2.201 0 3.093-.524 4.57-1.393 1.891-1.111 4.48-2.633 9.13-2.633s7.241 1.521 9.132 2.633c1.479.868 2.371 1.393 4.573 1.393 2.201 0 3.092-.524 4.57-1.393 1.892-1.111 4.481-2.633 9.131-2.633s7.241 1.521 9.133 2.632c1.479.869 2.373 1.393 4.577 1.393s3.098-.524 4.577-1.393c1.892-1.111 4.482-2.632 9.133-2.632v9c-2.203 0-3.097.524-4.576 1.393-1.894 1.111-4.485 2.632-9.136 2.632z"></path><path d="M76.645 33.453c-4.651 0-7.242-1.521-9.134-2.632-1.479-.869-2.373-1.393-4.576-1.393-2.201 0-3.093.524-4.571 1.393-1.891 1.111-4.48 2.633-9.129 2.633-4.65 0-7.24-1.521-9.132-2.633-1.479-.868-2.371-1.393-4.573-1.393-2.201 0-3.093.524-4.57 1.393-1.891 1.111-4.48 2.633-9.13 2.633-4.648 0-7.238-1.522-9.128-2.633-1.477-.868-2.369-1.392-4.568-1.392v-9c4.649 0 7.238 1.522 9.129 2.633 1.477.868 2.369 1.392 4.568 1.392 2.201 0 3.093-.524 4.57-1.393 1.891-1.111 4.48-2.633 9.13-2.633s7.241 1.521 9.132 2.633c1.479.868 2.371 1.393 4.573 1.393 2.201 0 3.092-.524 4.57-1.393 1.892-1.111 4.481-2.633 9.131-2.633s7.241 1.521 9.133 2.632c1.479.869 2.373 1.393 4.577 1.393s3.098-.524 4.577-1.393c1.892-1.111 4.482-2.632 9.133-2.632v9c-2.203 0-3.097.524-4.576 1.393-1.894 1.111-4.485 2.632-9.136 2.632zM76.645 51.212c-4.651 0-7.242-1.521-9.134-2.632-1.479-.869-2.373-1.393-4.576-1.393-2.201 0-3.093.524-4.571 1.393-1.891 1.111-4.48 2.633-9.129 2.633-4.65 0-7.24-1.521-9.132-2.633-1.479-.868-2.371-1.393-4.573-1.393-2.201 0-3.093.524-4.57 1.393-1.891 1.111-4.48 2.633-9.13 2.633-4.648 0-7.238-1.522-9.128-2.633-1.477-.868-2.369-1.392-4.568-1.392v-9c4.649 0 7.238 1.522 9.129 2.633 1.477.868 2.369 1.392 4.568 1.392 2.201 0 3.093-.524 4.57-1.393 1.891-1.111 4.48-2.633 9.13-2.633s7.241 1.521 9.132 2.633c1.479.868 2.371 1.393 4.573 1.393 2.201 0 3.092-.524 4.57-1.393 1.892-1.111 4.481-2.633 9.131-2.633s7.241 1.521 9.133 2.632c1.479.869 2.373 1.393 4.577 1.393s3.098-.524 4.577-1.393c1.892-1.111 4.482-2.632 9.133-2.632v9c-2.203 0-3.097.524-4.576 1.393-1.894 1.11-4.485 2.632-9.136 2.632z"></path><path d="M76.645 51.212c-4.651 0-7.242-1.521-9.134-2.632-1.479-.869-2.373-1.393-4.576-1.393-2.201 0-3.093.524-4.571 1.393-1.891 1.111-4.48 2.633-9.129 2.633-4.65 0-7.24-1.521-9.132-2.633-1.479-.868-2.371-1.393-4.573-1.393-2.201 0-3.093.524-4.57 1.393-1.891 1.111-4.48 2.633-9.13 2.633-4.648 0-7.238-1.522-9.128-2.633-1.477-.868-2.369-1.392-4.568-1.392v-9c4.649 0 7.238 1.522 9.129 2.633 1.477.868 2.369 1.392 4.568 1.392 2.201 0 3.093-.524 4.57-1.393 1.891-1.111 4.48-2.633 9.13-2.633s7.241 1.521 9.132 2.633c1.479.868 2.371 1.393 4.573 1.393 2.201 0 3.092-.524 4.57-1.393 1.892-1.111 4.481-2.633 9.131-2.633s7.241 1.521 9.133 2.632c1.479.869 2.373 1.393 4.577 1.393s3.098-.524 4.577-1.393c1.892-1.111 4.482-2.632 9.133-2.632v9c-2.203 0-3.097.524-4.576 1.393-1.894 1.11-4.485 2.632-9.136 2.632zM76.645 68.971c-4.651 0-7.242-1.521-9.134-2.633-1.479-.868-2.373-1.393-4.576-1.393-2.201 0-3.093.524-4.571 1.393-1.891 1.111-4.48 2.633-9.129 2.633-4.65 0-7.24-1.521-9.132-2.633-1.479-.868-2.371-1.393-4.573-1.393-2.201 0-3.093.524-4.57 1.393-1.891 1.111-4.48 2.633-9.13 2.633-4.648 0-7.238-1.521-9.128-2.633-1.477-.868-2.369-1.393-4.568-1.393v-9c4.649 0 7.238 1.522 9.129 2.633 1.477.868 2.369 1.393 4.568 1.393 2.201 0 3.093-.524 4.57-1.393 1.891-1.111 4.48-2.633 9.13-2.633s7.241 1.521 9.132 2.633c1.479.868 2.371 1.393 4.573 1.393 2.201 0 3.092-.524 4.57-1.393 1.892-1.111 4.481-2.633 9.131-2.633s7.241 1.521 9.133 2.632c1.479.869 2.373 1.394 4.577 1.394s3.098-.524 4.577-1.394c1.892-1.11 4.482-2.632 9.133-2.632v9c-2.203 0-3.097.524-4.576 1.393-1.894 1.111-4.485 2.633-9.136 2.633z"></path><path d="M76.645 68.971c-4.651 0-7.242-1.521-9.134-2.633-1.479-.868-2.373-1.393-4.576-1.393-2.201 0-3.093.524-4.571 1.393-1.891 1.111-4.48 2.633-9.129 2.633-4.65 0-7.24-1.521-9.132-2.633-1.479-.868-2.371-1.393-4.573-1.393-2.201 0-3.093.524-4.57 1.393-1.891 1.111-4.48 2.633-9.13 2.633-4.648 0-7.238-1.521-9.128-2.633-1.477-.868-2.369-1.393-4.568-1.393v-9c4.649 0 7.238 1.522 9.129 2.633 1.477.868 2.369 1.393 4.568 1.393 2.201 0 3.093-.524 4.57-1.393 1.891-1.111 4.48-2.633 9.13-2.633s7.241 1.521 9.132 2.633c1.479.868 2.371 1.393 4.573 1.393 2.201 0 3.092-.524 4.57-1.393 1.892-1.111 4.481-2.633 9.131-2.633s7.241 1.521 9.133 2.632c1.479.869 2.373 1.394 4.577 1.394s3.098-.524 4.577-1.394c1.892-1.11 4.482-2.632 9.133-2.632v9c-2.203 0-3.097.524-4.576 1.393-1.894 1.111-4.485 2.633-9.136 2.633zM76.645 86.729c-4.651 0-7.242-1.521-9.134-2.633-1.479-.868-2.373-1.393-4.576-1.393-2.201 0-3.093.524-4.571 1.393-1.891 1.111-4.48 2.633-9.129 2.633-4.65 0-7.24-1.521-9.132-2.633-1.479-.868-2.371-1.393-4.573-1.393-2.201 0-3.093.524-4.57 1.393-1.891 1.111-4.48 2.633-9.13 2.633-4.648 0-7.238-1.521-9.128-2.633-1.477-.868-2.369-1.393-4.568-1.393v-9c4.649 0 7.238 1.522 9.129 2.633 1.477.868 2.369 1.393 4.568 1.393 2.201 0 3.093-.524 4.57-1.393 1.891-1.111 4.48-2.633 9.13-2.633s7.241 1.521 9.132 2.633c1.479.868 2.371 1.393 4.573 1.393 2.201 0 3.092-.524 4.57-1.393 1.892-1.111 4.481-2.633 9.131-2.633s7.241 1.521 9.133 2.632c1.479.869 2.373 1.394 4.577 1.394s3.098-.524 4.577-1.394c1.892-1.11 4.482-2.632 9.133-2.632v9c-2.203 0-3.097.524-4.576 1.393-1.894 1.112-4.485 2.633-9.136 2.633z"></path><path d="M76.645 86.729c-4.651 0-7.242-1.521-9.134-2.633-1.479-.868-2.373-1.393-4.576-1.393-2.201 0-3.093.524-4.571 1.393-1.891 1.111-4.48 2.633-9.129 2.633-4.65 0-7.24-1.521-9.132-2.633-1.479-.868-2.371-1.393-4.573-1.393-2.201 0-3.093.524-4.57 1.393-1.891 1.111-4.48 2.633-9.13 2.633-4.648 0-7.238-1.521-9.128-2.633-1.477-.868-2.369-1.393-4.568-1.393v-9c4.649 0 7.238 1.522 9.129 2.633 1.477.868 2.369 1.393 4.568 1.393 2.201 0 3.093-.524 4.57-1.393 1.891-1.111 4.48-2.633 9.13-2.633s7.241 1.521 9.132 2.633c1.479.868 2.371 1.393 4.573 1.393 2.201 0 3.092-.524 4.57-1.393 1.892-1.111 4.481-2.633 9.131-2.633s7.241 1.521 9.133 2.632c1.479.869 2.373 1.394 4.577 1.394s3.098-.524 4.577-1.394c1.892-1.11 4.482-2.632 9.133-2.632v9c-2.203 0-3.097.524-4.576 1.393-1.894 1.112-4.485 2.633-9.136 2.633z"></path></g><!----></svg>